<svg width="35" height="45" viewBox="0 0 35 45" fill="none" xmlns="http://www.w3.org/2000/svg">
<path d="M23.5396 0C24.8498 0 26.0737 0.18963 27.2115 0.568891C28.3838 0.913672 29.4181 1.4136 30.3145 2.06869C31.2454 2.68929 32.0212 3.44781 32.6418 4.34424C33.2969 5.2062 33.7796 6.13711 34.0899 7.13697C34.4692 8.48162 34.4002 9.58492 33.883 10.4469C33.4003 11.3088 32.728 11.8949 31.8661 12.2053C31.0386 12.5156 30.1594 12.5156 29.2285 12.2053C28.2976 11.8605 27.608 11.1709 27.1598 10.1366C26.7116 9.24014 26.1944 8.53333 25.6083 8.01616C25.0221 7.49899 24.3326 7.20593 23.5396 7.13697C23.2293 7.10249 22.85 7.15421 22.4018 7.29212C21.9881 7.39556 21.5743 7.58519 21.1606 7.86101C20.7813 8.10236 20.4366 8.44714 20.1263 8.89536C19.8504 9.30909 19.7125 9.79179 19.7125 10.3434C19.7125 11.3088 20.0401 12.3432 20.6951 13.4465C21.3847 14.5153 22.2294 15.5841 23.2293 16.6529L23.8499 17.3253C24.6429 18.2217 25.4359 19.1354 26.2289 20.0663C27.0219 20.9972 27.7459 21.9798 28.401 23.0141C29.0561 24.0485 29.5733 25.1518 29.9525 26.324C30.3663 27.4963 30.5731 28.7547 30.5731 30.0994C30.5731 32.0991 30.1421 33.9782 29.2802 35.7366C28.4182 37.495 27.246 39.0292 25.7634 40.3394C24.3153 41.6496 22.6432 42.6839 20.7469 43.4424C18.8506 44.2009 16.8681 44.5802 14.7994 44.5802C12.8341 44.5802 10.9378 44.2527 9.1105 43.5976C7.31764 42.977 5.73164 42.0805 4.35252 40.9083C3.00787 39.7015 1.92181 38.2707 1.09434 36.6158C0.301339 34.9608 -0.0606815 33.099 0.00827475 31.0303C0.00827475 30.0649 0.215143 29.2547 0.628881 28.5996C1.0771 27.91 1.61151 27.4101 2.23211 27.0998C2.8872 26.755 3.57676 26.5999 4.3008 26.6343C5.05932 26.6343 5.73164 26.824 6.31777 27.2032C6.93838 27.5825 7.42107 28.1514 7.76585 28.9099C8.11063 29.6339 8.23131 30.5476 8.12787 31.6509C8.12787 32.5818 8.28302 33.4093 8.59333 34.1333C8.93811 34.8574 9.40356 35.478 9.98969 35.9952C10.6103 36.4778 11.3171 36.8571 12.1101 37.1329C12.9376 37.4088 13.8168 37.5467 14.7477 37.5467C15.5751 37.5467 16.4026 37.3915 17.2301 37.0812C18.092 36.7709 18.8506 36.3399 19.5056 35.7883C20.1952 35.2022 20.7469 34.4954 21.1606 33.6679C21.5743 32.8059 21.7812 31.8578 21.7812 30.8234C21.7812 29.2719 21.3158 27.8238 20.3848 26.4792C19.4539 25.1345 18.3506 23.7554 17.0749 22.3418C16.3509 21.5143 15.6269 20.6696 14.9028 19.8077C14.1788 18.9457 13.5237 18.0665 12.9376 17.1701C12.3859 16.2392 11.9205 15.291 11.5412 14.3257C11.1964 13.3258 11.024 12.257 11.024 11.1192C11.024 10.6365 11.0585 10.1538 11.1275 9.67111C11.2309 9.15394 11.3688 8.63677 11.5412 8.1196C11.9549 6.80943 12.5755 5.65441 13.403 4.65455C14.2305 3.65468 15.1786 2.80997 16.2475 2.1204C17.3163 1.43084 18.4713 0.913672 19.7125 0.568891C20.9882 0.18963 22.2639 0 23.5396 0Z" fill="#7E5DC6"/>
</svg>
