<svg width="89" height="20" viewBox="0 0 89 20" fill="currentColor"
    xmlns="http://www.w3.org/2000/svg">
    <path
        d="M14.6 4.60002C14.8 4.20002 14.9 3.70002 14.7 3.20002C14.6 2.80002 14.4 2.40002 14.1 2.00002C13.8 1.60002 13.5 1.30002 13.1 1.00002C12.7 0.700015 12.3 0.500015 11.8 0.300015C11.3 0.100015 10.8 0.100015 10.2 0.100015C9.6 1.51061e-05 9.1 0.100015 8.5 0.200015C8 0.400015 7.5 0.600015 7 0.900015C6.5 1.20002 6.1 1.60002 5.8 2.00002C5.5 2.40002 5.2 3.00002 5 3.50002C4.9 3.80002 4.8 4.00002 4.8 4.20002C4.8 4.40002 4.8 4.60002 4.8 4.80002C4.8 5.30002 4.9 5.80002 5 6.20002C5.2 6.60002 5.4 7.00002 5.6 7.40002C5.9 7.80002 6.1 8.20002 6.4 8.60002C6.7 9.00002 7.1 9.40002 7.4 9.80002C8 10.4 8.4 11 8.8 11.6C9.2 12.2 9.4 12.8 9.4 13.5C9.4 14 9.3 14.4 9.1 14.7C8.9 15.1 8.7 15.4 8.4 15.6C8.1 15.8 7.8 16 7.4 16.2C7 16.3 6.7 16.4 6.3 16.4C5.9 16.4 5.5 16.3 5.2 16.2C4.9 16.1 4.6 15.9 4.3 15.7C4 15.5 3.8 15.2 3.7 14.9C3.6 14.6 3.5 14.2 3.5 13.8C3.5 13.3 3.5 12.9 3.3 12.6C3.2 12.3 3 12 2.7 11.9C2.4 11.7 2.2 11.7 1.8 11.7C1.5 11.7 1.2 11.8 0.9 11.9C0.6 12 0.4 12.3 0.2 12.6C0.1 12.8 0 13.1 0 13.5C0 14.4 0.1 15.2 0.5 15.9C0.9 16.6 1.3 17.2 1.9 17.8C2.5 18.3 3.2 18.7 4 19C4.8 19.3 5.6 19.4 6.5 19.4C7.4 19.4 8.2 19.2 9.1 18.9C9.9 18.6 10.6 18.1 11.3 17.5C11.9 16.9 12.4 16.3 12.8 15.5C13.2 14.7 13.4 13.9 13.4 13C13.4 12.4 13.3 11.9 13.1 11.4C12.9 10.9 12.7 10.4 12.4 10C12.1 9.50002 11.8 9.10002 11.5 8.70002C11.2 8.30002 10.8 7.90002 10.5 7.50002L10 7.30002C9.6 6.80002 9.2 6.30002 8.9 5.90002C8.6 5.40002 8.5 4.90002 8.5 4.50002C8.5 4.30002 8.6 4.00002 8.7 3.90002C8.8 3.70002 9 3.50002 9.1 3.40002C9.3 3.30002 9.5 3.20002 9.6 3.20002C9.8 3.10002 10 3.10001 10.1 3.10001C10.4 3.10001 10.7 3.30002 11 3.50002C11.3 3.70002 11.5 4.00002 11.7 4.40002C11.9 4.90002 12.2 5.20002 12.6 5.30002C13 5.40002 13.4 5.40002 13.7 5.30002C14.1 5.20002 14.4 4.90002 14.6 4.60002Z" />
    <path
        d="M58.2 0.399951C58.1 0.299951 58 0.199951 57.8 0.199951C57.7 0.199951 57.6 0.199951 57.5 0.199951C57.4 0.199951 57.3 0.199951 57.2 0.199951H51.4C50.9 0.199951 50.5 0.399951 50.2 0.699951C49.9 0.999951 49.7 1.39995 49.7 1.79995C49.7 2.19995 49.8 2.59995 50 2.89995C50.3 3.19995 50.7 3.39995 51.3 3.39995H53.6L49.8 14.6C49.5 15.5 49.1 16.1 48.7 16.4C48.3 16.7 47.8 16.9 47.3 16.9C47.1 16.9 46.9 16.8 46.8 16.7C46.7 16.5 46.6 16.3999 46.6 16.2999C46.7 15.9999 46.6 15.7 46.5 15.4C46.8 14.8 47.1 14.2 47.3 13.5C47.4 13.1 47.4 12.8 47.2 12.6C47 12.4 46.6 12 46.3 12C46 11.9 45.6 12 45.3 12.1C45 12.2 44.7 12.5 44.6 12.9C44.4 13.5 44.2 14 43.9 14.4C43.7 14.9 43.4 15.3 43.2 15.6C42.9 15.9 42.7 16.2 42.4 16.4C42.1 16.6 41.9 16.7 41.7 16.7C41.5 16.7 41.4 16.6 41.3 16.5C41.2 16.4 41.2 16.2 41.2 16.1C41.2 15.9 41.2 15.8 41.3 15.6L42.6 11.9C42.7 11.7 42.7 11.5 42.8 11.3C42.8 11.1 42.9 10.9 42.9 10.7C42.9 10.2 42.8 9.69995 42.5 9.29995C42.2 8.89995 41.9 8.59995 41.5 8.29995C40.9 7.99995 40.4 7.79995 40 7.69995C39.6 7.49995 39.2 7.39995 38.9 7.29995C39 6.99995 39 6.69995 38.9 6.39995C38.8 6.09995 38.7 5.79995 38.5 5.59995C38.3 5.39995 38.1 5.19995 37.8 4.99995C37.5 4.79995 37.2 4.79995 37 4.79995C36.5 4.79995 36.1 4.89995 35.8 5.19995C35.5 5.49995 35.2 5.79995 35.1 6.19995C35.1 6.29995 35 6.49995 35 6.69995C35 6.89995 35 7.09995 35 7.19995C35 7.79995 35.2 8.29995 35.6 8.79995L34 13C34 13.1 33.9 13.2 33.9 13.3C33.4 14.5 32.9 15.3 32.4 15.9C31.9 16.4 31.3 16.7 30.8 16.7C30.4 16.7 30.2 16.5 30.2 16.1C30.2 15.9 30.2 15.7 30.3 15.4L32.8 8.19995C33 7.59995 33 7.19995 32.8 6.79995C32.6 6.39995 32.3 6.19995 32 6.09995C31.6 5.99995 31.2 5.89995 30.8 6.09995C30.4 6.19995 30 6.39995 29.8 6.69995C29.6 6.49995 29.2 6.39995 28.8 6.19995C28.4 5.99995 27.8 5.99995 27.2 5.99995C26.5 5.99995 25.7 6.19995 25 6.59995C24.3 6.99995 23.8 7.69995 23.5 8.49995L21.4 14.5C21.3 14.7 21.3 14.9 21.3 15C21.1 15.3 20.9 15.5 20.7 15.7C20.1 16.3 19.4 16.6 18.8 16.6C18.4 16.6 18.1 16.4999 17.8 16.2999C17.6 16.0999 17.5 15.8 17.5 15.5C17.5 15.3 17.5 15.1 17.6 15L19.7 8.99995H21C21.5 8.99995 21.9 8.89995 22.2 8.59995C22.5 8.29995 22.7 7.99995 22.7 7.69995C22.8 7.39995 22.7 6.99995 22.5 6.79995C22.3 6.49995 22 6.39995 21.5 6.39995H20.5L22 2.19995C22.1 1.79995 22.1 1.39995 21.8 1.09995C21.6 0.799951 21.2 0.599951 20.9 0.499951C20.5 0.399951 20.1 0.399951 19.7 0.599951C19.3 0.799951 19 1.19995 18.8 1.69995L17.1 6.49995H16.2C15.6 6.49995 15.2 6.59995 15 6.89995C14.7 7.19995 14.6 7.49995 14.5 7.79995C14.5 8.09995 14.5 8.39995 14.7 8.69995C14.9 8.99995 15.1 9.09995 15.5 9.09995H16.2C16 9.59995 15.9 9.99995 15.7 10.5C15.6 10.9 15.4 11.3 15.3 11.7C15.2 12.1 15 12.5 14.9 12.9C14.8 13.3 14.6 13.8 14.4 14.2C14.2 14.7 14.1 15.2 14.1 15.7C14.1 16.3 14.2 16.8 14.5 17.2C14.7 17.7 15.1 18 15.4 18.4C15.8 18.7 16.3 19 16.8 19.1C17.3 19.3 17.9 19.2999 18.5 19.2999C19.8 19.2999 21 18.9 22.1 18L22.2 18.1C22.5 18.4 22.9 18.5999 23.3 18.7999C23.7 18.9999 24.2 19.1 24.7 19.1C25.2 19.1 25.7 18.9999 26.2 18.7999C26.7 18.5999 27.2 18.3 27.6 18C27.8 18.3 28 18.5 28.2 18.7C28.5 18.9 28.8 19 29.1 19.1C29.4 19.2 29.7 19.2999 29.9 19.2999C30.2 19.2999 30.4 19.2999 30.6 19.2999C31.1 19.2999 31.5 19.2 32 19.1C32.5 19 33 18.7 33.5 18.4C34 18.1 34.4 17.6 34.9 17.1C35.3 16.5 35.8 15.9 36.1 15C36.2 14.8 36.3 14.6 36.3 14.5C36.4 14.3 36.5 14.2 36.5 13.9C36.5 13.8 36.5 13.8 36.6 13.7L37.8 10.3C38 10.4 38.2 10.4 38.4 10.5C38.6 10.6 38.8 10.7 38.9 10.8C39 10.9 39.2 11 39.2 11.2C39.3 11.4 39.3 11.6 39.2 11.9L38.2 14.7C38 15.2 37.9 15.7 37.9 16.1C37.9 16.6 38 17 38.2 17.5C38.4 17.9 38.6 18.2 38.9 18.5C39.2 18.8 39.6 19 40 19.1C40.4 19.3 40.9 19.2999 41.3 19.2999C42.3 19.2999 43.2 18.9999 44.1 18.2999C44.2 18.4999 44.4 18.5999 44.6 18.7999C45 19.0999 45.4 19.4 46 19.6C46.5 19.8 47.1 19.9 47.7 19.9C48.2 19.9 48.7 19.8 49.2 19.7C49.7 19.6 50.3 19.3 50.8 19C51.3 18.7 51.8 18.2 52.2 17.6C52.6 17 53 16.3 53.3 15.4L58.3 0.699951C58.3 0.599951 58.3 0.499951 58.2 0.399951ZM28.1 11.8L27.3 14.1C27.1 14.5 27 14.9 26.8 15.1C26.6 15.3 26.4 15.5 26.2 15.6C26 15.7 25.9 15.8 25.7 15.8C25.6 15.8 25.4 15.8 25.3 15.8C25.1 15.8 25 15.7 24.9 15.6C24.8 15.5 24.8 15.3 24.8 15.2C24.8 15 24.8 14.9 24.8 14.7C24.8 14.5 24.9 14.4 24.9 14.3L26.1 10.8C26.3 10.3 26.5 9.99995 26.6 9.79995C26.8 9.59995 27 9.39995 27.1 9.39995C27.3 9.29995 27.4 9.29995 27.5 9.29995C27.6 9.29995 27.7 9.29995 27.7 9.29995C27.7 9.29995 27.8 9.29995 27.9 9.39995C28 9.39995 28.1 9.59995 28.2 9.69995C28.3 9.89995 28.3 10.1 28.3 10.4C28.3 10.9 28.3 11.3 28.1 11.8Z" />
    <path
        d="M87.8 12.3999C87.6 12.0999 87.3 11.9999 87 11.8999C86.7 11.7999 86.3 11.8999 86 12.0999C85.7 12.2999 85.4 12.5999 85.3 12.9999C84.8 14.3999 84.2999 15.2999 83.6999 15.8999C83.0999 16.4999 82.6 16.7999 82 16.7999C81.8 16.7999 81.6 16.6999 81.5 16.5999C81.4 16.4999 81.3 16.2999 81.3 16.1999C81.3 15.9999 81.3 15.8999 81.3 15.8999C81.6 14.9999 81.8999 14.1999 82.1999 13.2999C82.4999 12.3999 82.8999 11.4999 83.1999 10.5999C83.2999 10.3999 83.3 10.1999 83.4 9.99994C83.4 9.79994 83.5 9.59994 83.5 9.39994C83.5 8.89994 83.3999 8.49994 83.1999 8.19994C82.9999 7.79994 82.8 7.49994 82.5 7.29994C82.2 6.99994 81.9 6.79994 81.5 6.69994C81.1 6.49994 80.6999 6.49994 80.1999 6.39994C79.9999 6.39994 79.8 6.39994 79.5 6.39994C79.2 6.39994 78.8999 6.39994 78.6999 6.49994C78.3999 6.59994 78.1 6.69994 77.8 6.79994C77.4 6.79994 77 6.99994 76.8 7.29994C76.6 6.99994 76.3 6.79994 75.9 6.59994C75.5 6.39994 75.1 6.29994 74.5 6.29994C74 6.29994 73.4999 6.29994 73.1999 6.39994C72.8999 6.49994 72.6 6.59994 72.4 6.69994C72.3 6.49994 72 6.39994 71.8 6.29994C71.5 6.19994 71.2 6.19994 70.9 6.19994C70.6 6.19994 70.2999 6.29994 70.0999 6.49994C69.7999 6.69994 69.6999 6.89994 69.5999 7.19994L67 14.5999C66.7 15.1999 66.4 15.5999 66 15.9999C65.5 16.4999 64.9 16.7999 64.4 16.7999C64 16.7999 63.7999 16.5999 63.7999 16.1999C63.7999 15.9999 63.8 15.7999 63.9 15.4999L66.4 8.29994C66.6 7.69994 66.6 7.29994 66.4 6.89994C66.2 6.49994 65.8999 6.29994 65.5999 6.19994C65.1999 6.09994 64.8 5.99994 64.4 6.19994C64 6.29994 63.6 6.49994 63.4 6.79994C63.2 6.59994 62.8 6.49994 62.4 6.29994C62 6.09994 61.3999 6.09994 60.7999 6.09994C60.0999 6.09994 59.2999 6.29994 58.5999 6.69994C57.8999 7.09994 57.3999 7.79994 57.0999 8.59994L55 14.5999C54.9 14.7999 54.8999 14.9999 54.7999 15.1999C54.7999 15.3999 54.7 15.5999 54.7 15.7999C54.7 16.2999 54.8 16.6999 55 17.0999C55.2 17.4999 55.4 17.8999 55.7 18.1999C56 18.4999 56.3999 18.6999 56.7999 18.8999C57.1999 19.0999 57.7 19.1999 58.2 19.1999C58.7 19.1999 59.2 19.0999 59.7 18.8999C60.2 18.6999 60.6999 18.3999 61.0999 18.0999C61.2999 18.3999 61.5 18.5999 61.7 18.7999C62 18.9999 62.2999 19.0999 62.5999 19.1999C62.8999 19.2999 63.2 19.3999 63.4 19.3999C63.7 19.3999 63.8999 19.3999 64.0999 19.3999C64.5999 19.3999 65 19.2999 65.5 19.1999C65.8 19.0999 66 18.9999 66.3 18.8999C66.5 18.9999 66.7 19.0999 67 19.1999C67.3 19.1999 67.6 19.1999 67.8 19.0999C68.1 18.9999 68.2999 18.8999 68.5999 18.6999C68.7999 18.4999 68.9999 18.1999 69.0999 17.8999L71.6999 10.5999C71.8999 10.0999 72.2 9.69994 72.5 9.49994C72.8 9.19994 73.2 9.09994 73.5 9.09994C73.7 9.09994 73.9 9.19994 74 9.29994C74.1 9.39994 74.1999 9.59994 74.1999 9.79994C74.1999 9.89994 74.1999 10.0999 74.0999 10.1999L71.5999 17.3999C71.3999 17.7999 71.4 18.1999 71.4 18.4999C71.5 18.7999 71.6 18.9999 71.8 19.1999C72 19.3999 72.2 19.4999 72.5 19.5999C72.8 19.6999 73.1 19.6999 73.3 19.5999C73.6 19.4999 73.8999 19.3999 74.0999 19.0999C74.3999 18.8999 74.4999 18.5999 74.6999 18.1999C74.8999 17.6999 75.1 17.0999 75.3 16.4999C75.5 15.8999 75.7 15.2999 75.9 14.5999C76.1 13.9999 76.3 13.3999 76.5 12.6999C76.7 12.0999 76.8999 11.4999 77.0999 10.9999C77.3999 10.3999 77.7 9.99994 78 9.59994C78.6 9.19994 78.9 8.99994 79.3 8.99994C79.5 8.99994 79.7 9.09994 79.8 9.19994C80 9.39994 80 9.49994 80 9.69994C80 9.89994 80 9.99994 79.9 10.1999L78.3 14.6999C78.1 15.1999 78 15.6999 78 16.1999C78 16.6999 78.1 17.1999 78.3 17.5999C78.5 17.9999 78.7999 18.2999 79.0999 18.5999C79.3999 18.8999 79.8 19.0999 80.3 19.1999C80.7 19.3999 81.1999 19.3999 81.6999 19.3999C82.2999 19.3999 82.8 19.2999 83.4 19.0999C84 18.8999 84.4999 18.5999 85.0999 18.0999C85.6999 17.5999 86.1999 16.9999 86.5999 16.1999C87.0999 15.3999 87.5 14.4999 87.9 13.3999C88.1 12.9999 88 12.5999 87.8 12.3999ZM61.7999 11.7999L61 14.1999C60.8 14.5999 60.7 14.9999 60.5 15.1999C60.3 15.3999 60.1 15.5999 59.9 15.6999C59.7 15.7999 59.6 15.8999 59.4 15.8999C59.3 15.8999 59.1 15.8999 59 15.8999C58.8 15.8999 58.6999 15.7999 58.5999 15.6999C58.4999 15.5999 58.5 15.3999 58.5 15.2999C58.5 15.0999 58.5 14.9999 58.5 14.7999C58.5 14.5999 58.5999 14.4999 58.5999 14.3999L59.7999 10.8999C59.9999 10.3999 60.1999 10.0999 60.2999 9.89994C60.4999 9.69994 60.6999 9.49994 60.7999 9.49994C60.9999 9.39994 61.1 9.39994 61.2 9.39994C61.3 9.39994 61.4 9.39994 61.4 9.39994C61.4 9.39994 61.4999 9.39994 61.5999 9.49994C61.6999 9.49994 61.8 9.69994 61.9 9.79994C62 9.99994 62 10.1999 62 10.4999C62 10.8999 61.8999 11.2999 61.7999 11.7999Z" />
</svg>